<?xml version="1.0" encoding="iso-8859-1"?>
<!-- Generator: Adobe Illustrator 19.0.0, SVG Export Plug-In . SVG Version: 6.00 Build 0)  -->
<svg xmlns="http://www.w3.org/2000/svg" xmlns:xlink="http://www.w3.org/1999/xlink" version="1.1" id="Layer_1" x="0px" y="0px" viewBox="0 0 250.44 250.44" style="enable-background:new 0 0 250.44 250.44;" xml:space="preserve" width="512px" height="512px">
<g>
	<g>
		<g>
			<path d="M139.622,194.152c47.016-6.988,83.208-47.612,83.208-96.54C222.83,43.788,179.042,0,125.218,0     C71.394,0,27.61,43.792,27.61,97.612c0,22.296,7.564,42.828,20.192,59.28v7.48c-2.936,1.476-4.828,3.396-4.828,5.812     c0,0.492,0.1,0.956,0.244,1.412c-0.132,0.548-0.244,1.1-0.244,1.684v67.7c0,6.208,12.092,9.46,24.04,9.46     c8.96,0,18-1.828,21.964-5.36h88.604v-1.588c0-6.34-4.848-11.5-10.808-11.5h-10.388c-0.66-4.524-5.884-7.584-9.708-8.348     c-5.352-1.072-12.076-3.612-13.4-7.26c-0.524-1.436-0.532-8.824-0.372-13.752C136.806,200.86,139.438,197.744,139.622,194.152z      M47.798,150.088c-10.192-14.984-16.22-33.024-16.22-52.476c0-51.636,42.008-93.644,93.64-93.644     c51.636,0,93.644,42.008,93.644,93.644c0,51.632-42.008,93.64-93.644,93.64c-12.06,0-23.572-2.328-34.168-6.5v-8.796     c10.472,4.608,22.004,7.224,34.168,7.224c47.184,0,85.572-38.388,85.572-85.572c0-47.184-38.388-85.572-85.572-85.572     c-47.184,0-85.572,38.388-85.572,85.572c0,12.936,2.984,25.152,8.152,36.148V150.088z M117.518,202.26l0.004,0.144     c0.168,4.924,0.168,12.516-0.364,13.976c-1.324,3.648-8.048,6.188-13.4,7.26c-3.824,0.764-9.048,3.828-9.708,8.348h-3v-42.972     c6.556,2.46,13.432,4.248,20.564,5.252C111.834,197.568,114.094,200.464,117.518,202.26z M48.474,167.6     c2.348,4.08,10.64,6.264,18.54,6.264c7.88,0,16.152-2.172,18.52-6.236c1.472,0.864,2.34,1.76,2.34,2.552     c0.004,2.568-8.124,6.288-20.86,6.288s-20.864-3.72-20.864-6.284C46.15,169.384,46.994,168.476,48.474,167.6z M55.39,126.944     l-0.072,0.004c0.268,3.74,5.296,6.564,11.692,6.564c6.688,0,11.736-2.956,11.736-6.872c0-0.036-0.004-0.204-0.012-0.432     c2.7,1.072,4.316,2.38,4.316,3.472c0,2.228-6.248,5.46-16.036,5.46c-9.788,0-16.036-3.236-16.036-5.46     c0-1.096,1.592-2.42,4.304-3.496v0.648L55.39,126.944z M58.454,126.688V93.516c0-4.368,3.292-7.988,7.524-8.5     C70.726,96.4,71.73,98.492,72.99,101.12c0.46,0.956,0.956,1.988,1.684,3.576c0.256,6.204,0.884,21.364,0.896,21.94     c0,1.544-3.256,3.696-8.56,3.696c-5.12,0-8.416-2.104-8.524-3.612L58.454,126.688z M67.014,138.316     c6.072,0,12.372-1.292,16.036-3.744v30.66c0,2.228-6.248,5.46-16.036,5.46c-9.788,0-16.036-3.232-16.036-5.46v-30.66     C54.642,137.02,60.942,138.316,67.014,138.316z M87.878,240.98c0,2.564-8.128,6.284-20.864,6.284     c-12.736,0-20.864-3.72-20.864-6.284v-65.848c4.376,2.976,12.656,4.512,20.864,4.512s16.488-1.536,20.864-4.512V240.98z      M86.226,164.36v-31.912c0-0.496-0.124-0.956-0.224-1.424c0.132-0.432,0.224-0.876,0.224-1.348c0-3.172-3.192-5.5-7.628-6.94     c-0.228-5.684-0.652-15.856-0.76-18.488l-0.144-0.592c-0.812-1.776-1.344-2.888-1.836-3.912     c-1.28-2.664-2.292-4.768-7.376-16.988l-1.464-0.98c-6.472,0-11.736,5.264-11.736,11.736v29.272     c-3.812,1.264-6.676,3.188-7.328,5.752c-3.856-9.572-6.032-19.992-6.032-30.928c0-45.932,37.368-83.304,83.3-83.304     s83.304,37.368,83.304,83.304c0,45.936-37.376,83.304-83.308,83.304c-12.188,0-23.732-2.696-34.168-7.428v-0.208     c0-0.592-0.1-1.156-0.236-1.712c0.14-0.448,0.236-0.904,0.236-1.384C91.05,167.764,89.178,165.832,86.226,164.36z      M146.054,226.752c2.664,0.532,6.376,2.628,7.124,5.236h-6.34v3.176h19.932c3.712,0,6.812,2.904,7.492,6.74H90.938     c0.06-0.3,0.112-0.604,0.112-0.92v-5.816h37.924v-3.176h-31.72c0.752-2.608,4.46-4.704,7.124-5.236     c3.136-0.628,13.528-3.148,15.76-9.288c0.78-2.144,0.692-9.84,0.6-13.528h1.88c0.964,0.156,1.96,0.248,2.988,0.248     s2.02-0.092,2.988-0.248h1.096c-0.088,3.688-0.176,11.384,0.6,13.528C132.526,223.608,142.922,226.128,146.054,226.752z      M128.222,200.76h-5.228c-4.176-0.72-7.488-3.072-8.148-5.936h1.708c2.856,0.252,5.74,0.396,8.66,0.396     c2.88,0,5.728-0.152,8.544-0.396h2.616C135.714,197.692,132.398,200.044,128.222,200.76z" fill="#FFFFFF"/>
			<path d="M52.382,223.708c-0.628,0-1.136,0.508-1.136,1.136v14.532c0,0.628,0.508,1.136,1.136,1.136     c0.628,0,1.136-0.508,1.136-1.136v-14.532C53.518,224.212,53.01,223.708,52.382,223.708z" fill="#FFFFFF"/>
			<path d="M52.382,180.992c-0.628,0-1.136,0.508-1.136,1.136v36.896c0,0.628,0.508,1.136,1.136,1.136     c0.628,0,1.136-0.508,1.136-1.136v-36.896C53.518,181.5,53.01,180.992,52.382,180.992z" fill="#FFFFFF"/>
			<path d="M55.926,164.88c0,0,0.004,0,0.008,0c0.624-0.004,1.132-0.516,1.128-1.144c-0.028-4.392-0.024-8.876-0.02-13.336     l0.004-4.732c0-0.628-0.508-1.136-1.136-1.136s-1.136,0.508-1.136,1.136v4.728c-0.004,4.468-0.008,8.956,0.02,13.356     C54.798,164.376,55.302,164.88,55.926,164.88z" fill="#FFFFFF"/>
			<path d="M153.654,58.668c0.292,0,0.584-0.112,0.808-0.336l8.996-9.12c0.44-0.448,0.436-1.164-0.008-1.604     c-0.448-0.444-1.168-0.436-1.604,0.008l-8.996,9.12c-0.44,0.448-0.436,1.164,0.008,1.604     C153.078,58.56,153.366,58.668,153.654,58.668z" fill="#FFFFFF"/>
			<path d="M111.47,100.296c0.22,0.22,0.508,0.328,0.796,0.328c0.292,0,0.584-0.112,0.808-0.336l34.188-34.656     c0.44-0.448,0.436-1.164-0.008-1.604c-0.448-0.444-1.168-0.436-1.604,0.008l-34.188,34.656     C111.022,99.136,111.026,99.856,111.47,100.296z" fill="#FFFFFF"/>
			<path d="M93.146,120.008c0.292,0,0.584-0.112,0.808-0.336l12.824-13c0.44-0.448,0.436-1.164-0.008-1.604     c-0.452-0.444-1.168-0.436-1.604,0.008l-12.824,13c-0.44,0.448-0.436,1.164,0.008,1.604     C92.57,119.896,92.858,120.008,93.146,120.008z" fill="#FFFFFF"/>
			<path d="M129.118,60.3c0.284,0,0.572-0.108,0.792-0.324L141.562,48.6c0.448-0.436,0.456-1.156,0.016-1.604     c-0.432-0.444-1.156-0.46-1.604-0.016l-11.652,11.376c-0.448,0.436-0.456,1.156-0.016,1.604     C128.526,60.184,128.822,60.3,129.118,60.3z" fill="#FFFFFF"/>
			<path d="M108.182,80.744c0.284,0,0.572-0.108,0.792-0.324l15.352-14.992c0.448-0.436,0.456-1.156,0.016-1.604     c-0.436-0.444-1.156-0.46-1.604-0.016L107.39,78.796c-0.448,0.436-0.456,1.156-0.016,1.604     C107.594,80.628,107.886,80.744,108.182,80.744z" fill="#FFFFFF"/>
			<path d="M139.014,101.364c0.22,0.22,0.508,0.332,0.8,0.332s0.58-0.112,0.804-0.332l26.736-26.74c0.44-0.44,0.44-1.16,0-1.604     c-0.44-0.44-1.16-0.444-1.604,0l-26.736,26.74C138.57,100.204,138.57,100.92,139.014,101.364z" fill="#FFFFFF"/>
		</g>
	</g>
</g>
<g>
</g>
<g>
</g>
<g>
</g>
<g>
</g>
<g>
</g>
<g>
</g>
<g>
</g>
<g>
</g>
<g>
</g>
<g>
</g>
<g>
</g>
<g>
</g>
<g>
</g>
<g>
</g>
<g>
</g>
</svg>
