<?xml version="1.0" encoding="iso-8859-1"?>
<!-- Generator: Adobe Illustrator 19.0.0, SVG Export Plug-In . SVG Version: 6.00 Build 0)  -->
<svg xmlns="http://www.w3.org/2000/svg" xmlns:xlink="http://www.w3.org/1999/xlink" version="1.1" id="Layer_1" x="0px" y="0px" viewBox="0 0 512.001 512.001" style="enable-background:new 0 0 512.001 512.001;" xml:space="preserve" width="512px" height="512px">
<g>
	<g>
		<path d="M486.401,269.149h-12.465L364.838,103.137c-6.953-11.052-18.87-18.008-31.913-18.625    c-8.117-0.381-16.041,2.555-21.95,8.133c-8.283,8.066-12.308,21.141-12.308,39.971c0,4.713,3.82,8.533,8.533,8.533    s8.533-3.82,8.533-8.533c0-17.175,3.888-24.571,7.15-27.746c2.605-2.375,6.076-3.569,9.591-3.3    c7.455,0.477,14.208,4.559,18.096,10.938l88.027,133.943c-7.578-2.61-15.648-3.474-23.606-2.526    c-0.233,0.017-0.454,0.046-0.675,0.075l-0.321,0.033c-5.182,0.567-10.247,1.921-15.021,4.017    c-6.783,2.858-12.937,7.021-18.113,12.254c-1.973,2.015-3.777,4.187-5.396,6.496c-1.618-2.311-3.425-4.485-5.4-6.5    c-5.145-5.207-11.262-9.353-18.004-12.204c-14.119-5.896-30.005-5.924-44.146-0.079c-6.859,2.767-13.056,6.953-18.183,12.283    c-2.788,2.807-5.276,5.898-7.421,9.222c-11.607-14.532-32.798-16.904-47.33-5.296c-1.978,1.58-3.772,3.379-5.348,5.361    c-1.558-2.407-3.298-4.691-5.205-6.832c-0.4-0.508-0.854-1.029-1.342-1.563c-0.054-0.054-0.65-0.721-0.704-0.771    c-5.102-5.34-11.276-9.54-18.116-12.325c-8.863-3.88-18.602-5.32-28.208-4.171c-0.233,0.017-0.454,0.046-0.675,0.075l-0.321,0.033    c-5.182,0.567-10.247,1.921-15.021,4.017c-6.782,2.858-12.937,7.021-18.112,12.254c-1.973,2.014-3.778,4.187-5.396,6.496    c-1.618-2.311-3.425-4.485-5.4-6.5c-5.145-5.207-11.262-9.353-18.004-12.204c-12.607-5.239-26.661-5.849-39.675-1.725    l87.975-133.867c3.889-6.376,10.642-10.456,18.096-10.933c3.516-0.277,6.99,0.918,9.591,3.3c3.263,3.175,7.15,10.571,7.15,27.746    c0,4.713,3.82,8.533,8.533,8.533s8.533-3.82,8.533-8.533c0-18.829-4.025-31.904-12.308-39.971    c-5.887-5.614-13.826-8.556-21.95-8.133c-13.041,0.617-24.956,7.57-31.908,18.621L38.066,269.149H25.601    c-14.132,0.015-25.585,11.468-25.6,25.6c-0.051,6.759,2.64,13.251,7.458,17.992c4.762,4.896,11.312,7.643,18.142,7.608h12.136    c0.294,0.803,0.55,1.593,0.889,2.412c0.117,0.285,0.251,0.563,0.4,0.833l1.45,2.646c0.309,0.566,0.682,1.095,1.112,1.575    l84.546,94.946c4.948,5.743,13.615,6.388,19.358,1.439c0.476-0.41,0.923-0.852,1.338-1.323l84.655-95.062    c0.428-0.481,0.8-1.01,1.108-1.575l1.817-3.4c3.984-9.243,5.376-19.396,4.025-29.369c0.292-0.795,0.461-1.63,0.5-2.477    c0-9.426,7.641-17.067,17.067-17.067c9.426,0,17.067,7.641,17.067,17.067c0.04,0.845,0.208,1.679,0.499,2.473    c-1.391,10.256,0.131,20.696,4.392,30.127l1.45,2.646c0.309,0.566,0.682,1.095,1.112,1.575l84.546,94.946    c4.948,5.743,13.615,6.388,19.358,1.439c0.476-0.41,0.923-0.852,1.338-1.323l84.655-95.062c0.428-0.481,0.8-1.01,1.108-1.575    l1.45-2.646c0.149-0.27,0.283-0.548,0.4-0.833c0.341-0.826,0.597-1.609,0.892-2.412h12.133c14.111-0.066,25.534-11.489,25.6-25.6    C511.985,280.617,500.533,269.165,486.401,269.149z M35.744,287.427c-0.36,1.508-0.65,3.025-0.885,4.552    c-0.102,0.669-0.225,1.334-0.304,2.005c-0.268,2.18-0.409,4.373-0.421,6.57c0,0.921,0.021,1.831,0.062,2.729h-8.596    c-2.3,0.006-4.501-0.939-6.079-2.612c-1.59-1.557-2.476-3.695-2.454-5.921c0.006-4.71,3.823-8.527,8.533-8.533H35.98    C35.876,286.616,35.84,287.026,35.744,287.427z M219.076,315.395L219.076,315.395l-0.984,1.796l-81.558,91.591l-81.558-91.592    l-0.75-1.375c-0.814-2-1.462-4.064-1.938-6.171c-0.756-2.97-1.122-6.027-1.087-9.092c0.009-5.327,1.081-10.598,3.153-15.505    l0.008-0.018c0.387-0.884,0.786-1.77,1.26-2.617c0.134-0.249,0.229-0.463,0.391-0.736c1.837-3.476,4.187-6.657,6.971-9.433    c3.549-3.693,7.845-6.588,12.6-8.492c9.877-4.131,21.002-4.115,30.867,0.046c4.724,2.002,9.009,4.911,12.612,8.563    c4.003,4.423,7.241,9.483,9.579,14.971c1.796,4.358,6.785,6.436,11.144,4.639c2.103-0.867,3.773-2.537,4.639-4.639    c2.337-5.487,5.573-10.545,9.575-14.967c3.661-3.7,8.017-6.641,12.817-8.654c3.151-1.388,6.492-2.296,9.912-2.692    c0.292-0.021,0.558-0.05,0.825-0.087c0.204-0.017,0.412-0.042,0.617-0.071c6.648-0.825,13.395,0.204,19.496,2.971    c4.572,1.836,8.712,4.604,12.154,8.129l1.096,1.213c0.199,0.278,0.415,0.544,0.646,0.796c2.96,3.263,5.368,6.987,7.129,11.025    C222.789,294.689,222.927,305.601,219.076,315.395z M459.642,309.941c-0.462,2.006-1.086,3.971-1.867,5.875l-82.308,92.967    l-81.617-91.658l-0.558-0.975c-2.099-4.931-3.173-10.237-3.158-15.596c0.022-10.625,4.26-20.806,11.783-28.308    c3.549-3.693,7.845-6.588,12.6-8.492c9.877-4.131,21.002-4.115,30.867,0.046c4.724,2.002,9.009,4.911,12.612,8.563    c4.003,4.423,7.241,9.483,9.579,14.971c1.796,4.358,6.786,6.436,11.144,4.639c2.103-0.867,3.773-2.537,4.639-4.639    c2.337-5.487,5.573-10.545,9.575-14.967c3.661-3.7,8.017-6.641,12.817-8.654c3.151-1.388,6.492-2.296,9.912-2.692    c0.292-0.021,0.558-0.05,0.825-0.087c0.204-0.017,0.413-0.042,0.617-0.071c6.648-0.825,13.395,0.203,19.496,2.971    c4.572,1.836,8.712,4.604,12.154,8.129l1.096,1.213c0.195,0.274,0.406,0.535,0.633,0.783c2.141,2.354,3.995,4.954,5.521,7.746    c0.579,1.088,1.163,2.25,1.621,3.292c2.088,4.922,3.168,10.212,3.174,15.558C460.828,303.72,460.439,306.876,459.642,309.941z     M492.326,300.824c-1.558,1.592-3.698,2.479-5.925,2.458h-8.596c0.042-0.9,0.063-1.81,0.063-2.729    c-0.012-2.193-0.153-4.384-0.421-6.561c-0.079-0.671-0.203-1.335-0.305-2.004c-0.237-1.542-0.533-3.077-0.899-4.604    c-0.093-0.388-0.127-0.782-0.229-1.169h10.388c4.71,0.006,8.527,3.823,8.533,8.533    C494.941,297.048,493.997,299.247,492.326,300.824z" fill="#FFFFFF"/>
	</g>
</g>
<g>
	<g>
		<path d="M99.903,288.719c-0.001-0.001-0.002-0.002-0.003-0.003c-3.33-3.332-8.732-3.333-12.064-0.003    c-0.001,0.001-0.002,0.002-0.003,0.003l-8.533,8.533c-3.332,3.332-3.332,8.735,0,12.067c3.332,3.332,8.735,3.332,12.067,0    l8.533-8.533C103.233,297.452,103.234,292.051,99.903,288.719z" fill="#FFFFFF"/>
	</g>
</g>
<g>
	<g>
		<path d="M125.424,305.783c-3.323-3.281-8.666-3.281-11.989,0l-17.067,17.067c-3.353,3.311-3.388,8.713-0.077,12.066    c3.311,3.353,8.713,3.388,12.066,0.077c0.026-0.026,0.052-0.051,0.077-0.077l17.067-17.067    C128.811,314.496,128.777,309.094,125.424,305.783z" fill="#FFFFFF"/>
	</g>
</g>
<g>
	<g>
		<path d="M338.837,288.719c-0.001-0.001-0.002-0.002-0.003-0.003c-3.33-3.332-8.732-3.333-12.064-0.003    c-0.001,0.001-0.002,0.002-0.003,0.003l-8.533,8.533c-3.332,3.332-3.332,8.735,0,12.067c3.332,3.332,8.735,3.332,12.067,0    l8.533-8.533C342.166,297.452,342.167,292.051,338.837,288.719z" fill="#FFFFFF"/>
	</g>
</g>
<g>
	<g>
		<path d="M364.358,305.783c-3.323-3.282-8.667-3.282-11.991,0l-17.067,17.067c-3.353,3.311-3.387,8.713-0.076,12.066    c3.311,3.353,8.713,3.387,12.066,0.076c0.025-0.025,0.051-0.05,0.076-0.076l17.067-17.067    C367.745,314.497,367.711,309.094,364.358,305.783z" fill="#FFFFFF"/>
	</g>
</g>
<g>
</g>
<g>
</g>
<g>
</g>
<g>
</g>
<g>
</g>
<g>
</g>
<g>
</g>
<g>
</g>
<g>
</g>
<g>
</g>
<g>
</g>
<g>
</g>
<g>
</g>
<g>
</g>
<g>
</g>
</svg>
