<?xml version="1.0" encoding="iso-8859-1"?>
<!-- Generator: Adobe Illustrator 19.0.0, SVG Export Plug-In . SVG Version: 6.00 Build 0)  -->
<svg xmlns="http://www.w3.org/2000/svg" xmlns:xlink="http://www.w3.org/1999/xlink" version="1.1" id="Layer_1" x="0px" y="0px" viewBox="0 0 64.001 64.001" style="enable-background:new 0 0 64.001 64.001;" xml:space="preserve" width="512px" height="512px">
<g>
	<g>
		<rect x="29" y="44" width="6" height="2" fill="#FFFFFF"/>
	</g>
</g>
<g>
	<g>
		<path d="M28,33c0,0.249-1.064,1-3,1s-3-0.751-3-1h-2c0,1.71,2.149,3,5,3s5-1.29,5-3H28z" fill="#FFFFFF"/>
	</g>
</g>
<g>
	<g>
		<path d="M42,33c0,0.249-1.064,1-3,1s-3-0.751-3-1h-2c0,1.71,2.149,3,5,3s5-1.29,5-3H42z" fill="#FFFFFF"/>
	</g>
</g>
<g>
	<g>
		<rect y="21" width="3" height="2" fill="#FFFFFF"/>
	</g>
</g>
<g>
	<g>
		<rect x="4" y="17" width="2" height="2" fill="#FFFFFF"/>
	</g>
</g>
<g>
	<g>
		<rect y="17" width="2" height="2" fill="#FFFFFF"/>
	</g>
</g>
<g>
	<g>
		<rect x="58" y="18" width="2" height="2" fill="#FFFFFF"/>
	</g>
</g>
<g>
	<g>
		<rect x="62" y="18" width="2" height="2" fill="#FFFFFF"/>
	</g>
</g>
<g>
	<g>
		<rect x="52" y="4" width="2" height="2" fill="#FFFFFF"/>
	</g>
</g>
<g>
	<g>
		<rect x="56" y="4" width="2" height="2" fill="#FFFFFF"/>
	</g>
</g>
<g>
	<g>
		<rect x="60" y="4" width="2" height="2" fill="#FFFFFF"/>
	</g>
</g>
<g>
	<g>
		<rect x="4" y="0" width="2" height="2" fill="#FFFFFF"/>
	</g>
</g>
<g>
	<g>
		<rect x="8" y="0" width="2" height="2" fill="#FFFFFF"/>
	</g>
</g>
<g>
	<g>
		<rect x="12" y="0" width="2" height="2" fill="#FFFFFF"/>
	</g>
</g>
<g>
	<g>
		<rect x="31" y="5" width="2" height="2" fill="#FFFFFF"/>
	</g>
</g>
<g>
	<g>
		<rect x="35" y="5" width="2" height="2" fill="#FFFFFF"/>
	</g>
</g>
<g>
	<g>
		<rect x="26" y="16" width="2" height="2" fill="#FFFFFF"/>
	</g>
</g>
<g>
	<g>
		<rect x="30" y="16" width="2" height="2" fill="#FFFFFF"/>
	</g>
</g>
<g>
	<g>
		<rect x="39" y="5" width="2" height="2" fill="#FFFFFF"/>
	</g>
</g>
<g>
	<g>
		<path d="M63.708,62.293l-5.243-5.243c-1.322-1.322-3.08-2.05-4.95-2.05H45c-2.702,0-4.896-2.158-4.984-4.839    c4.705-5.968,7.487-13.215,7.942-20.943L48.03,28H64v-2H48.146c0.118-2.074-0.167-4.097-0.801-6H56v-2h-9.464    c-0.702-1.424-1.619-2.755-2.745-3.949C40.72,10.794,36.563,9,32.087,9c-3.966,0-7.677,1.414-10.609,4H5v2h14.574    c-1.448,1.789-2.484,3.821-3.052,6H5v2h11.141c-0.127,0.993-0.173,2.005-0.113,3.031l0.188,3.188    c0.45,7.659,3.187,14.845,7.816,20.782H24c0,2.757-2.243,5-5,5h-8.515c-1.87,0-3.628,0.728-4.95,2.05l-5.243,5.243    C0.105,62.48,0,62.735,0,63v1h2v-0.586l4.95-4.95C7.894,57.521,9.15,57,10.485,57H19c3.162,0,5.838-2.109,6.703-4.993    c0.853,0.95,1.755,1.863,2.711,2.732c0.184,0.167,0.424,0.26,0.673,0.26h6c0.248,0,0.489-0.093,0.673-0.26    c0.907-0.825,1.769-1.688,2.583-2.585C39.254,54.964,41.892,57,45,57h8.515c1.336,0,2.591,0.52,3.536,1.464l4.95,4.95V64h2v-1    C64.001,62.735,63.895,62.48,63.708,62.293z M34.697,53h-5.221c-6.729-6.249-10.725-14.72-11.265-23.899l-0.188-3.188    C17.966,24.927,18.01,23.953,18.15,23h5.436l-1.293,1.293l1.414,1.414L27.414,22l-3.707-3.707l-1.414,1.414L23.586,21h-4.973    c0.621-2.055,1.7-3.959,3.225-5.577C24.527,12.571,28.167,11,32.087,11c3.92,0,7.56,1.571,10.249,4.423    c0.749,0.794,1.383,1.662,1.919,2.577h-6.841l1.293-1.293l-1.414-1.414L33.586,19l3.707,3.707l1.414-1.414L37.414,20h7.809    c0.719,1.854,1.047,3.856,0.926,5.914L46.144,26h-4.73l1.293-1.293l-1.414-1.414L37.586,27l3.707,3.707l1.414-1.414L41.414,28    h4.613l-0.065,1.101C45.422,38.281,41.426,46.753,34.697,53z" fill="#FFFFFF"/>
	</g>
</g>
<g>
</g>
<g>
</g>
<g>
</g>
<g>
</g>
<g>
</g>
<g>
</g>
<g>
</g>
<g>
</g>
<g>
</g>
<g>
</g>
<g>
</g>
<g>
</g>
<g>
</g>
<g>
</g>
<g>
</g>
</svg>
